<?xml version="1.0" encoding="iso-8859-1"?>
<!-- Generator: Adobe Illustrator 19.0.0, SVG Export Plug-In . SVG Version: 6.00 Build 0)  -->
<svg version="1.1" id="Capa_1" xmlns="http://www.w3.org/2000/svg" xmlns:xlink="http://www.w3.org/1999/xlink" x="0px" y="0px"
	 viewBox="0 0 313.6 313.6" style="enable-background:new 0 0 313.6 313.6;" xml:space="preserve">
<g>
	<g>
		<path d="M270.4,131.4c0-5.6,2.4-11.2,6.4-15.2c0.8-1.6,1.6-2.8,1.6-4c0-1.2-0.4-2.8-1.6-3.6l-72-72c-2-2-5.2-2-7.2,0
			c-4,4-9.6,6.4-15.2,6.4c-6,0-11.2-2.4-15.2-6.4c-0.8-0.8-2.4-1.6-3.6-1.6s-2.8,0.4-3.6,1.6L36.8,159.4c-2,2-2,5.2,0,7.2
			c8.4,8.4,8.4,22.4,0,30.8c-2,2-2,5.2,0,7.2l72,72c1.2,1.2,2.4,1.6,3.6,1.6c1.2,0,2.8-0.4,3.6-1.6c4-4,9.6-6.4,15.2-6.4
			c5.6,0,11.2,2.4,15.2,6.4c0.8,0.8,2.4,1.6,3.6,1.6s2.8-0.4,3.6-1.6l123.2-122.8c2-2,2-5.2,0-7.2
			C272.8,142.6,270.4,137,270.4,131.4z M266,149.8l-116,116c-10.8-8-26.4-8-37.2,0L47.6,201c8-11.2,8-26.4,0-37.2L164,47.4
			c10.8,8,26.4,8,37.2,0l65.2,65.2c-4,5.6-6,12-6,18.8C260,137.8,262.4,144.2,266,149.8z"/>
	</g>
</g>
<g>
	<g>
		<path d="M172.4,67c-2-2-5.2-2-7.2,0L64,168.2c-2,2-2,5.2,0,7.2c1.2,1.2,2.4,1.6,3.6,1.6s2.8-0.4,3.6-1.6L172,74.6
			C174.4,72.2,174.4,69,172.4,67z"/>
	</g>
</g>
<g>
	<g>
		<path d="M247.2,142.2c-2-2-5.2-2-7.2,0L139.2,243c-2,2-2,5.2,0,7.2c1.2,1.2,2.4,1.6,3.6,1.6s2.8-0.4,3.6-1.6l100.8-100.8
			C249.2,147.4,249.2,144.2,247.2,142.2z"/>
	</g>
</g>
<g>
	<g>
		<path d="M196.8,162.6l-17.6-12.4l0.4-21.6c0-2-1.2-3.6-2.8-4.8c-1.6-0.8-4-0.8-5.2,0.4L154,136.6l-20.8-6.8c-2-0.8-4,0-5.2,1.2
			c-1.2,1.2-2,3.6-1.2,5.2l6.8,20.8l-12.8,17.2c-1.2,1.6-1.2,3.6-0.4,5.2c0.8,1.6,2.8,2.8,4.4,2.8l21.6-0.4l12.8,18.4
			c0.8,1.2,2.4,2,4,2c0.4,0,0.4,0,0.8,0c2-0.4,3.6-1.6,4-3.6l6.4-20.8l20.8-6.4c2-0.4,3.2-2,3.6-4
			C199.2,165.4,198.4,163.4,196.8,162.6z M169.2,168.6c-1.6,0.4-2.8,1.6-3.2,3.2l-4,13.6l-8-11.6c-0.8-1.2-2.4-2-4-2h-14l8.4-11.2
			c0.4-1.2,0.4-2.8,0-4.4L140,143l13.2,4.4c1.6,0.4,3.2,0.4,4.8-0.8l11.2-8.4v14c0,1.6,0.8,3.2,2,4.4l11.6,8L169.2,168.6z"/>
	</g>
</g>
<g>
	<g>
		<path d="M311.6,144.6c-5.6-6-8.4-13.2-8.4-21.2s3.2-15.6,8.8-21.2c0.8-0.8,1.6-2.4,1.6-3.6s-0.4-2.8-1.6-3.6L218.4,1.8
			c-2-2-5.2-2-7.2,0c-5.6,5.6-13.2,8.8-21.2,8.8s-15.6-3.2-21.2-8.8c-0.8-0.8-2.4-1.6-3.6-1.6s-2.8,0.4-3.6,1.6l-160,160
			c-0.8,0.8-1.6,2.4-1.6,3.6s0.4,2.8,1.6,3.6c5.6,5.6,8.8,13.2,8.8,21.2s-3.2,15.6-8.8,21.2C0.8,212.2,0,213.8,0,215
			s0.4,2.8,1.6,3.6l93.2,93.2c2,2,5.2,2,7.2,0c5.6-5.6,13.2-8.8,21.2-8.8s15.6,3.2,21.2,8.8c0.8,0.8,2.4,1.6,3.6,1.6
			s2.8-0.4,3.6-1.6l160-160c0.8-0.8,1.6-2.4,1.6-3.6C313.2,147,312.8,145.4,311.6,144.6z M148,301c-6.8-5.6-15.6-8.4-24.4-8.4
			s-17.6,2.8-24.4,8.4l-86.8-86.8c5.6-6.8,8.4-15.6,8.4-24.4s-2.8-17.6-8.4-24.4L165.6,12.2c6.8,5.6,15.6,8.4,24.4,8.4
			s17.6-2.8,24.4-8.4l86.4,86.4c-5.6,6.8-8.4,15.6-8.4,24.4s3.2,18,8.8,24.8L148,301z"/>
	</g>
</g>
<g>
</g>
<g>
</g>
<g>
</g>
<g>
</g>
<g>
</g>
<g>
</g>
<g>
</g>
<g>
</g>
<g>
</g>
<g>
</g>
<g>
</g>
<g>
</g>
<g>
</g>
<g>
</g>
<g>
</g>
</svg>
