<svg xmlns="http://www.w3.org/2000/svg" viewBox="0 0 208.05 143.94"><g id="Lag_2" data-name="Lag 2"><g id="Lag_1-2" data-name="Lag 1"><path d="M196.33,27.35a10.61,10.61,0,0,0,1.76.41C208,28.28,208,28.28,208,38c0,9.33-.1,18.67.05,28,.06,3.76-.91,5.71-5.15,6.22A13.2,13.2,0,0,0,191,85.44c-.15,7,3.8,12.11,11.28,13.63,4,.81,5.53,2.52,5.44,6.68-.25,10.66-.19,21.33,0,32,.06,4.43-1.5,6.21-6.13,6.2q-97.47-.16-194.94-.08c-5.93,0-6.54-.65-6.55-6.62,0-10.33.19-20.67-.1-31C-.11,102,1.1,100,5.43,99.12c7.81-1.58,11.91-6.85,11.64-13.88C16.8,78.36,12.2,73.33,4.44,72.12c-3.25-.5-4.23-2.09-4.23-5,0-11.33.06-22.66,0-34,0-3.44,1.3-5,4.83-5.54C26.25,24.51,47.45,21.19,68.67,18q51.8-7.83,103.61-15.58c4.93-.74,9.87-1.46,14.79-2.27,3.73-.62,5.53.81,6,4.64C194,12.34,195.23,19.87,196.33,27.35ZM6.68,34.18c0,9.32.14,18.15-.07,27-.09,3.48.88,5.13,4.36,6.47C19,70.7,23.25,77,23.49,85.71c.22,7.86-4.64,15.62-12.28,18.28-4.06,1.41-4.78,3.53-4.59,7.21.24,5,.06,10,.06,15v11.3H150.16c0-3-.35-5.66.16-8.2.24-1.19,2.16-2,3.31-3,.86,1.06,2.3,2,2.47,3.2a56.82,56.82,0,0,1,.12,8.09h45.72c0-9.38-.15-18.5.07-27.62.08-3.2-.92-4.43-4-5.53a19.43,19.43,0,0,1-7.35-32.18c2.92-3,7-4.81,11-7.41V34.17h-45c0,2.61.37,5-.13,7.2-.33,1.45-1.91,2.62-2.93,3.91-1.12-1.36-2.8-2.57-3.2-4.12-.56-2.13-.14-4.51-.14-7ZM145.92,12.77c.29,2.52.89,4.67.65,6.71-.2,1.67-1.4,3.21-2.15,4.81-1.39-1.3-3.24-2.37-4-4-.89-1.81-.82-4.08-1.24-6.57L48.33,27.23l.07.4H190.1c-1-7-2-13.73-3.08-20.83Z"/><path d="M78.09,92.35c11.65,0,23.31-.14,35,.14,2,.05,5.56,1.8,5.65,3,.27,3.7-3.12,3.49-5.78,3.49q-35.2,0-70.4,0c-2.51,0-5.56.18-5.51-3.38s3.23-3.17,5.64-3.18C54.46,92.33,66.28,92.36,78.09,92.35Z"/><path d="M78.13,118.1c-12,0-23.95,0-35.93,0-2.23,0-5.11.58-5.21-3s2.65-3.21,5-3.21h71.86c2.42,0,5.33,0,4.86,3.21-.18,1.22-3.32,2.8-5.14,2.84C101.75,118.22,89.94,118.1,78.13,118.1Z"/><path d="M77.37,79.26c-11.65,0-23.29,0-34.93,0-2.36,0-5.78.61-5.24-3.21.18-1.23,3.28-2.9,5.06-2.92q35.67-.28,71.35,0c1.79,0,4.9,1.73,5.09,3,.47,3.23-2.57,3.14-4.91,3.14Q95.58,79.28,77.37,79.26Z"/><path d="M59.11,53.67c5.83,0,11.67-.2,17.48.13,1.51.09,2.93,1.83,4.39,2.81-1.42,1.09-2.82,3.11-4.27,3.14q-17.73.38-35.48,0c-1.45,0-2.85-1.93-4.28-3,1.39-1,2.73-2.89,4.17-3C47.1,53.47,53.11,53.67,59.11,53.67Z"/><path d="M150.11,67.51c0-2.83-.37-5.73.15-8.46.28-1.51,2.06-2.73,3.16-4.08,1,1.28,2.73,2.52,2.79,3.85.3,6.14.3,12.31,0,18.46-.06,1.3-1.84,2.52-2.83,3.78-1.09-1.36-2.88-2.6-3.11-4.09C149.77,73.89,150.11,70.67,150.11,67.51Z"/><path d="M156.24,103.64a82.29,82.29,0,0,1-.14,9.94c-.14,1.19-1.83,2.2-2.81,3.3-1-1.08-2.95-2.13-3-3.25q-.42-9.94,0-19.9c0-1,2.05-2,3.16-3,.93,1.14,2.51,2.2,2.66,3.43a76.15,76.15,0,0,1,.13,9.44Z"/></g></g></svg>