<svg xmlns="http://www.w3.org/2000/svg" viewBox="0 0 41.26 15.81"><defs><style>.cls-1{fill:#fff;}</style></defs><g id="Layer_2" data-name="Layer 2"><g id="Layer_1-2" data-name="Layer 1"><path class="cls-1" d="M9.25,0,2.73,11.82H1.56L0,3.83H2.44L3.33,9c0-.15,5.46-7.92,5.92-9Z"/><path class="cls-1" d="M12.27,9.45H8.19a3.18,3.18,0,0,0,0,.36.76.76,0,0,0,.25.61.92.92,0,0,0,.63.21,1,1,0,0,0,1-.75l2,.33a3.13,3.13,0,0,1-1.25,1.4,3.57,3.57,0,0,1-1.92.54,3.08,3.08,0,0,1-2.15-.75,2.65,2.65,0,0,1-.82-2.1,3.49,3.49,0,0,1,.64-2A3.34,3.34,0,0,1,9.42,5.91a2.84,2.84,0,0,1,2.12.79,2.77,2.77,0,0,1,.79,2.08A4.36,4.36,0,0,1,12.27,9.45ZM10.13,8.31a1.78,1.78,0,0,0,0-.28A.84.84,0,0,0,10,7.48a.7.7,0,0,0-.55-.23,1,1,0,0,0-.68.28,1.31,1.31,0,0,0-.38.78Z"/><path class="cls-1" d="M19.11,6l-1,5.92H16l.2-1.11a2.18,2.18,0,0,1-2,1.27A1.67,1.67,0,0,1,13,11.66a1.32,1.32,0,0,1-.43-1,7.56,7.56,0,0,1,.11-1L13.33,6H15.6L15,9.38A5.17,5.17,0,0,0,15,10c0,.29.13.44.4.44.51,0,.85-.49,1-1.48L16.87,6Z"/><path class="cls-1" d="M15.85,11.91l1.34-8h3.3A5.9,5.9,0,0,1,22,4.07a1.82,1.82,0,0,1,1,.66,1.85,1.85,0,0,1,.39,1.17,1.81,1.81,0,0,1-.46,1.25,2.26,2.26,0,0,1-1.24.68,1.74,1.74,0,0,1,1.32,1.74,2.39,2.39,0,0,1-.63,1.64,2.7,2.7,0,0,1-2.1.7Zm2.62-1.77h1.19a1,1,0,0,0,.77-.23.76.76,0,0,0,.21-.51.72.72,0,0,0-.23-.55,1,1,0,0,0-.69-.21h-1ZM19,7h.91c.73,0,1.1-.25,1.1-.73s-.29-.64-.87-.64h-.92Z"/><path class="cls-1" d="M26.85,12.4a4.81,4.81,0,0,1-2.68-.9,2.49,2.49,0,0,1-.85-2A3.45,3.45,0,0,1,24.3,7a3.34,3.34,0,0,1,2.46-1,3,3,0,0,1,2.16.77,2.51,2.51,0,0,1,.8,1.9M26.34,10.8c.41,0,.68-.31.83-.92a6.44,6.44,0,0,0,.22-1.52c0-.63-.23-.94-.68-.94s-.68.31-.83.93a6.46,6.46,0,0,0-.24,1.53C25.64,10.49,25.88,10.8,26.34,10.8Z"/><path class="cls-1" d="M38.58.12,33.19,8.84,34.74,12H32.29l-.92-1.95L30,12l-4.79,3.79,5.34-7.08L29.29,6.1h2.39l.72,1.46L33.46,6.1Z"/><text/></g></g></svg>